<svg xmlns="http://www.w3.org/2000/svg" version="1.1" xmlns:xlink="http://www.w3.org/1999/xlink" xmlns:svgjs="http://svgjs.dev/svgjs" width="2000" height="727" viewBox="0 0 2000 727"><g transform="matrix(1,0,0,1,-1.2121212121212466,-0.21434249877864886)"><svg viewBox="0 0 396 144" data-background-color="#ffffff" preserveAspectRatio="xMidYMid meet" height="727" width="2000" xmlns="http://www.w3.org/2000/svg" xmlns:xlink="http://www.w3.org/1999/xlink"><g id="tight-bounds" transform="matrix(1,0,0,1,0.2400000000000091,0.04245573565904692)"><svg viewBox="0 0 395.52 143.9150885286819" height="143.9150885286819" width="395.52"><g><svg viewBox="0 0 633.2382544867289 230.41196261682242" height="143.9150885286819" width="395.52"><g><svg viewBox="0 0 395.52 230.41196261682242" height="230.41196261682242" width="395.52"><g id="textblocktransform"><svg viewBox="0 0 395.52 230.41196261682242" height="230.41196261682242" width="395.52" id="textblock"><g><svg viewBox="0 0 395.52 230.41196261682242" height="230.41196261682242" width="395.52"><g transform="matrix(1,0,0,1,0,0)"><svg width="395.52" viewBox="3.71 -36.04 62.690000000000005 36.53" height="230.41196261682242" data-palette-color="#556970"><path d="M20.07 0.49L20.07 0.49Q14.6 0.49 10.96-1.84 7.32-4.17 5.52-8.34 3.71-12.5 3.71-17.97L3.71-17.97Q3.71-23.49 5.73-27.54 7.74-31.59 11.55-33.81 15.36-36.04 20.7-36.04L20.7-36.04Q23.44-36.04 25.74-35.41 28.05-34.79 29.81-33.73 31.57-32.67 32.62-31.3L32.62-31.3 30.27-28.71 29.86-28.71Q29.1-29.57 27.83-30.4 26.56-31.23 24.82-31.76 23.07-32.3 20.85-32.3L20.85-32.3Q16.8-32.3 14.06-30.52 11.33-28.74 9.94-25.51 8.54-22.29 8.54-17.99L8.54-17.99Q8.54-14.6 9.22-11.88 9.89-9.16 11.34-7.23 12.79-5.3 15.16-4.27 17.53-3.25 20.9-3.25L20.9-3.25Q23.29-3.25 25.11-3.58 26.93-3.91 28.2-4.27L28.2-4.27 28.2-15.09 20.21-15.63 20.43-18.77 32.52-18.77 32.52-1.78Q30.71-1.07 28.77-0.56 26.83-0.05 24.67 0.22 22.51 0.49 20.07 0.49ZM49.68 0.22L49.68 0.22Q47.78 0.22 45.62 0.11 43.45 0 41.04-0.2L41.04-0.2 41.04-35.01Q42.55-35.21 43.94-35.34 45.33-35.47 46.62-35.57 47.9-35.67 49.06-35.71 50.22-35.74 51.27-35.74L51.27-35.74Q56.15-35.74 58.96-34.91 61.77-34.08 63.08-32.74 64.4-31.4 64.77-29.83 65.13-28.27 65.13-26.81L65.13-26.81Q65.13-25.2 64.56-23.75 63.99-22.31 62.67-21.17 61.35-20.02 59.08-19.29L59.08-19.29Q63.01-18.33 64.71-16.09 66.4-13.84 66.4-10.55L66.4-10.55Q66.4-7.69 65.46-5.65 64.52-3.61 62.52-2.31 60.52-1 57.35-0.39 54.17 0.22 49.68 0.22ZM50.49-3.3L50.49-3.3Q54.37-3.3 56.64-3.85 58.91-4.39 59.98-5.37 61.06-6.35 61.37-7.64 61.69-8.94 61.69-10.42L61.69-10.42Q61.69-12.96 60.69-14.53 59.69-16.09 57.58-16.8 55.47-17.5 52.12-17.5L52.12-17.5 45.77-17.5 45.77-3.49Q47.07-3.39 48.25-3.34 49.44-3.3 50.49-3.3ZM45.77-32.08L45.77-20.78 52.39-20.78Q54.66-20.78 56.56-21.2 58.47-21.63 59.62-22.86 60.76-24.1 60.76-26.49L60.76-26.49Q60.76-28.47 59.91-29.77 59.06-31.08 57.04-31.74 55.03-32.4 51.49-32.4L51.49-32.4Q50.27-32.4 48.83-32.32 47.39-32.25 45.77-32.08L45.77-32.08Z" opacity="1" transform="matrix(1,0,0,1,0,0)" fill="#ffffff" class="wordmark-text-0" data-fill-palette-color="primary" id="text-0"></path></svg></g></svg></g></svg></g></svg></g><g transform="matrix(1,0,0,1,449.91473448672895,23.58707361571159)"><svg viewBox="0 0 183.32352 183.23781538539924" height="183.23781538539924" width="183.32352"><g><svg xmlns="http://www.w3.org/2000/svg" xmlns:xlink="http://www.w3.org/1999/xlink" version="1.1" x="0" y="0" viewBox="0.7607695154586737 0.7749999999999999 30.439230484541326 30.425" enable-background="new 0 0 32 32" xml:space="preserve" height="183.23781538539924" width="183.32352" class="icon-icon-0" data-fill-palette-color="accent" id="icon-0"><g fill="#aba944" data-fill-palette-color="accent"><g fill="#aba944" data-fill-palette-color="accent"><path fill="#ffffff" d="M1.5 31.2C1.3 31.2 1.1 31.1 1 31 0.8 30.8 0.7 30.6 0.8 30.3L4.5 11.2C4.6 10.9 4.8 10.6 5.1 10.6L14.7 9.3C14.9 9.3 15.2 9.3 15.3 9.5L22.5 16.7C22.7 16.9 22.7 17.1 22.7 17.3L21.4 26.9C21.4 27.2 21.1 27.5 20.8 27.5L1.6 31.2zM5.8 12.1L2.4 29.6 19.9 26.2 21.1 17.5 14.4 10.8z" data-fill-palette-color="accent"></path></g><g fill="#aba944" data-fill-palette-color="accent"><rect x="5.2" y="19.8" transform="matrix(-0.7071 -0.7071 0.7071 -0.7071 -8.3465 48.7211)" fill="#ffffff" width="1.5" height="12.6" data-fill-palette-color="accent"></rect></g><g fill="#aba944" data-fill-palette-color="accent"><path fill="#ffffff" d="M12 23.1C11.2 23.1 10.4 22.8 9.8 22.2S8.9 20.9 8.9 20C8.9 19.2 9.2 18.4 9.8 17.8 11 16.6 13 16.6 14.1 17.8 15.3 19 15.3 20.9 14.1 22.1 13.6 22.8 12.8 23.1 12 23.1M12 18.4C11.6 18.4 11.2 18.6 10.9 18.9S10.4 19.6 10.4 20 10.6 20.8 10.9 21.1C11.5 21.7 12.5 21.7 13.1 21.1S13.7 19.5 13.1 18.9C12.8 18.6 12.4 18.4 12 18.4" data-fill-palette-color="accent"></path></g><g fill="#aba944" data-fill-palette-color="accent"><path fill="#ffffff" d="M23.8 18.7C22.9 18.7 22 18.3 21.4 17.7L14.3 10.6C13 9.3 13 7.1 14.3 5.8L19.1 1C19.4 0.7 19.9 0.7 20.2 1L31 11.8C31.1 11.9 31.2 12.1 31.2 12.3S31.1 12.7 31 12.8L26.1 17.7C25.5 18.4 24.7 18.7 23.8 18.7M19.7 2.6L15.4 6.9C14.7 7.6 14.7 8.9 15.4 9.6L22.5 16.7C23.2 17.4 24.5 17.4 25.2 16.7L29.5 12.4z" data-fill-palette-color="accent"></path></g></g></svg></g></svg></g></svg></g><defs></defs></svg><rect width="395.52" height="143.9150885286819" fill="none" stroke="none" visibility="hidden"></rect></g></svg></g></svg>